HIERARCHY
ROOT joint_Root
{
	OFFSET 0.0 0.0 0.0
	CHANNELS 6 Xposition Yposition Zposition Zrotation Xrotation Yrotation 
	JOINT Hips
	{
		OFFSET -0.726466 93.3139 -2.00062
		CHANNELS 6 Xposition Yposition Zposition Zrotation Xrotation Yrotation 
		JOINT Spine
		{
			OFFSET 15.7357 0.0 0.0
			CHANNELS 6 Xposition Yposition Zposition Zrotation Xrotation Yrotation 
			JOINT Chest
			{
				OFFSET 8.98455 -0.406207 0.0
				CHANNELS 6 Xposition Yposition Zposition Zrotation Xrotation Yrotation 
				JOINT Neck
				{
					OFFSET 16.3773 0.0 0.0
					CHANNELS 6 Xposition Yposition Zposition Zrotation Xrotation Yrotation 
					JOINT Head
					{
						OFFSET 6.45672 0.0 0.0
						CHANNELS 6 Xposition Yposition Zposition Zrotation Xrotation Yrotation 
						End Site
						{
							OFFSET 0.0 0.0 0.0
						}
					}
				}
				JOINT Shoulder_L
				{
					OFFSET 12.9942 -0.242716 4.98039
					CHANNELS 6 Xposition Yposition Zposition Zrotation Xrotation Yrotation 
					JOINT UpperArm_L
					{
						OFFSET 5.34809 0.0 0.0
						CHANNELS 6 Xposition Yposition Zposition Zrotation Xrotation Yrotation 
						JOINT LowerArm_L
						{
							OFFSET 24.3286 1.87007e-05 0.0
							CHANNELS 6 Xposition Yposition Zposition Zrotation Xrotation Yrotation 
							JOINT Hand_L
							{
								OFFSET 22.2916 0.0 0.0
								CHANNELS 6 Xposition Yposition Zposition Zrotation Xrotation Yrotation 
								End Site
								{
									OFFSET 0.0 0.0 0.0
								}
							}
						}
					}
				}
				JOINT Shoulder_R
				{
					OFFSET 12.9945 -0.242716 -4.98039
					CHANNELS 6 Xposition Yposition Zposition Zrotation Xrotation Yrotation 
					JOINT UpperArm_R
					{
						OFFSET -5.34813 0.0 0.0
						CHANNELS 6 Xposition Yposition Zposition Zrotation Xrotation Yrotation 
						JOINT LowerArm_R
						{
							OFFSET -24.3289 0.000322201 0.0
							CHANNELS 6 Xposition Yposition Zposition Zrotation Xrotation Yrotation 
							JOINT Hand_R
							{
								OFFSET -22.2915 -0.000108084 0.0
								CHANNELS 6 Xposition Yposition Zposition Zrotation Xrotation Yrotation 
								End Site
								{
									OFFSET 0.0 0.0 0.0
								}
							}
						}
					}
				}
			}
		}
		JOINT UpperLeg_L
		{
			OFFSET -2.19248 -6.46944 0.0
			CHANNELS 6 Xposition Yposition Zposition Zrotation Xrotation Yrotation 
			JOINT LowerLeg_L
			{
				OFFSET 39.0811 0.0 -1.23785e-05
				CHANNELS 6 Xposition Yposition Zposition Zrotation Xrotation Yrotation 
				JOINT Foot_L
				{
					OFFSET 40.9854 0.0 -1.26872e-05
					CHANNELS 6 Xposition Yposition Zposition Zrotation Xrotation Yrotation 
					JOINT Toes_L
					{
						OFFSET 11.7543 0.0 0.0
						CHANNELS 6 Xposition Yposition Zposition Zrotation Xrotation Yrotation 
						End Site
						{
							OFFSET 0.0 0.0 0.0
						}
					}
				}
			}
		}
		JOINT UpperLeg_R
		{
			OFFSET -2.19251 6.46944 0.0
			CHANNELS 6 Xposition Yposition Zposition Zrotation Xrotation Yrotation 
			JOINT LowerLeg_R
			{
				OFFSET -39.0811 -0.00228153 -0.0401928
				CHANNELS 6 Xposition Yposition Zposition Zrotation Xrotation Yrotation 
				JOINT Foot_R
				{
					OFFSET -40.9854 0.0 0.0
					CHANNELS 6 Xposition Yposition Zposition Zrotation Xrotation Yrotation 
					JOINT Toes_R
					{
						OFFSET -11.7543 0.0 0.0
						CHANNELS 6 Xposition Yposition Zposition Zrotation Xrotation Yrotation 
						End Site
						{
							OFFSET 0.0 0.0 0.0
						}
					}
				}
			}
		}
	}
}
MOTION
Frames:	4
Frame Time:	0.0333333
0.000000 0.000000 0.000000 0.000000 0.000000 -0.000000 0.026531 92.359700 -1.391360 87.858000 0.342246 5.584780 15.735700 0.000005 -0.000001 88.733400 85.918900 -89.151500 8.984550 -0.406207 -0.000000 0.393749 -0.153483 -0.835006 16.377300 -0.000001 -0.000001 4.626160 -3.322610 2.887080 6.456720 -0.000001 -0.000000 8.138130 -4.638380 -1.203100 12.994200 -0.242716 4.980390 -89.555600 -1.371440 -72.044000 5.348090 -0.000007 -0.000001 -70.517300 37.175500 -11.302000 24.328600 0.000019 0.000005 1.701150 4.430360 -21.030000 22.291600 -0.000001 0.000005 5.478760 5.475480 -5.576380 12.994500 -0.242716 -4.980390 90.546200 -1.674340 -71.930700 -5.348130 -0.000001 -0.000004 -77.468100 -34.581300 -92.091600 -24.328900 0.000322 -0.000009 11.980300 0.234132 -88.898300 -22.291500 -0.000108 -0.000004 23.758200 5.336080 -0.963765 -2.192480 -6.469440 -0.000000 -175.531000 -6.566940 -1.899060 39.081100 -0.000007 -0.000012 -0.096091 0.224614 23.161500 40.985400 -0.000006 -0.000013 0.575346 4.887380 -66.002700 11.754300 -0.000000 0.000003 -0.000045 -0.000517 -16.597700 -2.192510 6.469440 -0.000001 179.374000 14.918400 -178.872000 -39.081100 -0.002282 -0.040193 -0.025041 0.080876 19.326200 -40.985400 0.000008 0.000006 3.517190 7.510250 -65.313400 -11.754300 -0.000006 -0.000006 -0.009057 -0.096451 -20.501800
0.000000 0.000000 0.000000 0.000000 0.000000 -0.000000 0.033507 92.366000 -1.412420 87.909000 0.332251 5.617960 15.735700 0.000005 -0.000001 88.668600 85.897900 -89.093100 8.984550 -0.406207 -0.000000 0.435442 -0.163422 -0.847780 16.377300 -0.000001 -0.000001 4.599480 -3.334170 2.887670 6.456720 -0.000001 -0.000000 8.014860 -4.627050 -1.238560 12.994200 -0.242716 4.980390 -89.575100 -1.313190 -72.066900 5.348090 -0.000007 -0.000001 -70.476800 37.203000 -11.311100 24.328600 0.000019 0.000005 1.679110 4.347310 -21.142100 22.291600 -0.000001 0.000005 5.466840 5.476090 -5.599530 12.994500 -0.242716 -4.980390 90.559600 -1.710050 -71.875700 -5.348130 -0.000001 -0.000004 -77.637500 -34.530700 -92.427300 -24.328900 0.000322 -0.000009 11.967400 0.294449 -88.612600 -22.291500 -0.000108 -0.000004 23.844000 5.336850 -0.986339 -2.192480 -6.469440 -0.000000 -175.586000 -6.578030 -1.839450 39.081100 -0.000007 -0.000012 -0.094445 0.221567 23.086600 40.985400 -0.000006 -0.000013 0.580785 4.892880 -65.953800 11.754300 -0.000000 0.000003 -0.000041 -0.000476 -16.596100 -2.192510 6.469440 -0.000001 179.299000 14.924200 -178.842000 -39.081100 -0.002282 -0.040193 -0.025882 0.083323 19.315400 -40.985400 0.000008 0.000006 3.445760 7.562000 -65.286700 -11.754300 -0.000006 -0.000006 -0.009264 -0.098052 -20.567200
0.000000 0.000000 0.000000 0.000000 0.000000 -0.000000 0.035969 92.369600 -1.441000 87.918500 0.378275 5.568690 15.735700 0.000005 -0.000001 88.529700 85.900900 -88.956400 8.984550 -0.406207 -0.000000 0.428848 -0.182985 -0.852234 16.377300 -0.000001 -0.000001 4.533320 -3.382690 2.945850 6.456720 -0.000001 -0.000000 7.975530 -4.657330 -1.210470 12.994200 -0.242716 4.980390 -89.586900 -1.276870 -72.071200 5.348090 -0.000007 -0.000001 -70.423900 37.224600 -11.384600 24.328600 0.000019 0.000005 1.667660 4.308580 -21.182300 22.291600 -0.000001 0.000005 5.519350 5.477760 -5.662790 12.994500 -0.242716 -4.980390 90.573500 -1.744420 -71.798100 -5.348130 -0.000001 -0.000004 -77.760200 -34.562000 -92.708300 -24.328900 0.000322 -0.000009 11.869900 0.337988 -88.393900 -22.291500 -0.000108 -0.000004 23.751000 5.336590 -0.978794 -2.192480 -6.469440 -0.000000 -175.612000 -6.530310 -1.910100 39.081100 -0.000007 -0.000012 -0.094936 0.222871 23.072500 40.985400 -0.000006 -0.000013 0.578756 4.875230 -65.922000 11.754300 -0.000000 0.000003 -0.000039 -0.000455 -16.595300 -2.192510 6.469440 -0.000001 179.303000 14.940700 -178.914000 -39.081100 -0.002282 -0.040193 -0.026939 0.086346 19.313800 -40.985400 0.000008 0.000006 3.428490 7.524780 -65.261400 -11.754300 -0.000006 -0.000006 -0.009463 -0.099578 -20.629600
0.000000 0.000000 0.000000 0.000000 0.000000 -0.000000 0.030484 92.371700 -1.473110 87.894500 0.424862 5.544130 15.735700 0.000005 -0.000001 88.397500 85.895000 -88.804800 8.984550 -0.406207 -0.000000 0.440239 -0.203495 -0.813363 16.377300 -0.000001 -0.000001 4.511190 -3.420960 2.968940 6.456720 -0.000001 -0.000000 7.865780 -4.723260 -1.146560 12.994200 -0.242716 4.980390 -89.597800 -1.244620 -72.091500 5.348090 -0.000007 -0.000001 -70.408400 37.251800 -11.410000 24.328600 0.000019 0.000005 1.673400 4.307790 -21.252300 22.291600 -0.000001 0.000005 5.503280 5.476050 -5.597570 12.994500 -0.242716 -4.980390 90.574500 -1.740410 -71.730100 -5.348130 -0.000001 -0.000004 -77.701900 -34.680200 -92.995800 -24.328900 0.000322 -0.000009 11.817300 0.378714 -88.192100 -22.291500 -0.000108 -0.000004 23.642000 5.335160 -0.936805 -2.192480 -6.469440 -0.000000 -175.590000 -6.503420 -1.981790 39.081100 -0.000007 -0.000012 -0.095022 0.222790 23.098800 40.985400 -0.000006 -0.000013 0.580465 4.898590 -65.904800 11.754300 -0.000000 0.000003 -0.000041 -0.000474 -16.596000 -2.192510 6.469440 -0.000001 179.362000 14.919000 -178.966000 -39.081100 -0.002282 -0.040193 -0.025066 0.081007 19.312800 -40.985400 0.000008 0.000006 3.488900 7.445930 -65.246200 -11.754300 -0.000006 -0.000006 -0.009326 -0.098530 -20.586800
